<svg id="Layer_1" data-name="Layer 1" xmlns="http://www.w3.org/2000/svg" viewBox="0 0 110 42.98"><defs><style>.cls-1{fill:#fdc82f;}.cls-2{fill:#7ab800;}.cls-3{fill:#e98300;}</style></defs><title>Artboard 5</title><path class="cls-1" d="M66.09,12.21C64.75,8.38,61,5.5,54.85,4.75,30,3.23,11,30.88.27,19.93c1,1.26,4.91,10.13,16.77,8.91C29.34,27.56,48.64,7.05,66.09,12.21Z"/><path class="cls-2" d="M56.73,22.42c6.31-.07,11.4-2.08,11.37-4.49s-5.16-4.32-11.46-4.25-11.39,2.08-11.37,4.5S50.43,22.49,56.73,22.42Z"/><path class="cls-3" d="M40.75,21.88c2.53,3.13,8,6,15.56,5.66C68.64,27.05,78.64,23,103.5.52,88.65,11.64,70.66,23,55.91,24.1,45.92,24.85,41.56,22.49,40.75,21.88Z"/><path d="M10,38.13c-.11-.84-.89-.93-1.57-.93s-1.16.33-1.16.76.28.52.71.59l2.14.35c1.15.19,2,.63,2,1.79s-.79,2.14-3.26,2.14c-1.52,0-3.51-.19-3.53-2.19H7.26c0,.88.88,1,1.61,1s1.35-.24,1.35-.79-.39-.63-1.06-.74L7.6,39.9c-1.09-.17-2.15-.5-2.15-1.8s1.15-2,3.12-2c1.29,0,3.21.22,3.32,2Z"/><path d="M17.41,40.18h-2l1-2.53Zm1,2.47h1.84l-2.76-6.37H15.39l-2.75,6.37h1.83L15,41.34h2.89Z"/><path d="M21.13,36.28h5.6v1.21h-3.9v1.39h3.66V40.1H22.83v2.55h-1.7Z"/><path d="M27.91,36.28h5.86v1.21H29.61v1.32h4V40h-4v1.46H33.8v1.21H27.91Z"/><path d="M43.12,38.13c-.1-.84-.88-.93-1.57-.93s-1.16.33-1.16.76.28.52.72.59l2.14.35c1.14.19,2,.63,2,1.79s-.79,2.14-3.26,2.14c-1.53,0-3.51-.19-3.53-2.19h1.91c0,.88.88,1,1.62,1s1.34-.24,1.34-.79-.38-.63-1.06-.74l-1.56-.24c-1.09-.17-2.14-.5-2.14-1.8s1.14-2,3.11-2c1.29,0,3.21.22,3.32,2Z"/><path d="M47.94,39.47A2.09,2.09,0,1,1,50,41.62,2,2,0,0,1,47.94,39.47Zm-1.81,0c0,1.33.53,3.36,3.9,3.36s3.9-2,3.9-3.36S53.41,36.1,50,36.1,46.13,38.13,46.13,39.47Z"/><path d="M55.22,36.28h5.6v1.21h-3.9v1.37h3.66v1.21H56.92v2.58h-1.7Z"/><path d="M63.72,37.49H61.39V36.28h6.37v1.21H65.43v5.16H63.72Z"/><path d="M68.16,36.28h1.71l1.21,4.64h0l1.29-4.64h1.7l1.29,4.64h0l1.22-4.64h1.7l-2,6.37H74.56l-1.32-4.53h0L71.9,42.65H70.15Z"/><path d="M83.14,39.88H81.31l.91-2.23Zm1,2.77H86l-2.76-6.37H81.19l-2.75,6.37h1.83l.61-1.6h2.7Z"/><path d="M88.63,37.49H90.8c.41,0,.91.16.91.8a.77.77,0,0,1-.82.81H88.63Zm-1.71,5.16h1.71V40.32h2.12c.53,0,.9.22.9,1.11a2.33,2.33,0,0,0,.17,1.22h1.86a2.36,2.36,0,0,1-.32-1.38c0-.63-.11-1.59-.86-1.7v0a1.46,1.46,0,0,0,1-1.54c0-.65-.29-1.73-2-1.73H86.92Z"/><path d="M94.85,36.28h5.86v1.21H96.56v1.39h3.94v1.17H96.56v1.39h4.19v1.21h-5.9Z"/><path d="M102.22,36.68V36h2.45v.66h-.82v2.26h-.72V36.68Z"/><path d="M106.21,36,107,37.8l.78-1.78h1v2.92h-.7V37h0l-.83,2h-.58L105.87,37h0v1.93h-.69V36Z"/></svg>