<svg xmlns="http://www.w3.org/2000/svg" viewBox="0 0 102.23 36.9"><defs><style>.cls-1{fill:#3e3a39;}</style></defs><g id="图层_2" data-name="图层 2"><path class="cls-1" d="M2,2.38H9.7l3.86,15c.95,3.51,1.6,6.76,2.57,10.3h.2c1-3.54,1.66-6.79,2.57-10.3l3.79-15h7.44L20.45,34.51H11.7Z"/><path class="cls-1" d="M34.5,28.41H42V8.48H34.5V2.38H56.78v6.1H49.27V28.41h7.51v6.1H34.5Z"/><path class="cls-1" d="M62.91,30.46l4.17-5a13.75,13.75,0,0,0,8.54,3.35c3.09,0,4.52-1.2,4.52-2.77,0-2.31-1.91-2.87-5-4.14L71,20.12c-3.56-1.35-6.81-4.08-6.81-8.76C64.19,6,69,1.79,76,1.79A15.55,15.55,0,0,1,86.63,6L83,10.58a11.48,11.48,0,0,0-7.4-2.51c-2.4,0-4,1-4,2.87s2.15,2.64,5.23,3.79l3.93,1.67c4.21,1.58,6.87,4.2,6.87,8.73,0,5.34-4.48,10-12.44,10A18.52,18.52,0,0,1,62.91,30.46Z"/><path class="cls-1" d="M92.4,34.51V25.85H100v8.66Z"/></g></svg>