<?xml version="1.0" standalone="no"?><!DOCTYPE svg PUBLIC "-//W3C//DTD SVG 1.1//EN" "http://www.w3.org/Graphics/SVG/1.1/DTD/svg11.dtd"><svg t="1664177852037" class="icon" viewBox="0 0 1028 1024" version="1.1" xmlns="http://www.w3.org/2000/svg" p-id="6537" xmlns:xlink="http://www.w3.org/1999/xlink" width="200.78125" height="200"><path d="M1007.548064 899.256487L801.043871 692.754294c-3.577986-3.577986-8.032969-5.329979-12.194952-8.032969C908.82345 515.091988 893.926508 279.233909 742.042101 127.349503c-169.701337-169.775337-444.918262-169.775337-614.692598 0-169.775337 169.701337-169.775337 444.845262 0 614.692598 153.5634 153.5644 392.635466 166.708349 562.701801 42.498834 2.701989 3.869985 4.380983 8.104968 7.73997 11.536955L904.296468 1002.582084c28.624888 28.551888 74.773708 28.551888 103.252596 0 28.477889-28.623888 28.477889-74.846708 0-103.324597zM655.074441 654.927442c-121.653525 121.654525-318.884754 121.654525-440.611279 0-121.653525-121.652525-121.653525-318.956754 0-440.610279s318.884754-121.653525 440.611279 0c121.726525 121.726525 121.726525 318.957754 0 440.611279z" p-id="6538" fill="#d0d0d0"></path></svg>