<svg id="图层_1" data-name="图层 1" xmlns="http://www.w3.org/2000/svg" viewBox="0 0 217.56 62.43"><defs><style>.cls-1{fill:#4d8ec8;}.cls-2{fill:#fff;}.cls-3{fill:#3e3b3a;}</style></defs><rect class="cls-1" x="64.42" y="16.53" width="31.09" height="12.14"/><path class="cls-2" d="M66.23,18.25h2.12l1.07,4.12c.26,1,.44,1.86.71,2.84h.05c.27-1,.46-1.87.71-2.84l1-4.12h2L71.31,27.1h-2.4Z"/><path class="cls-2" d="M75.18,25.42h2.07V19.93H75.18V18.25h6.14v1.68H79.25v5.49h2.07V27.1H75.18Z"/><path class="cls-2" d="M83,26l1.15-1.37a3.74,3.74,0,0,0,2.35.92c.85,0,1.24-.33,1.24-.76,0-.64-.53-.79-1.36-1.14l-1.16-.49a2.59,2.59,0,0,1-1.87-2.42c0-1.46,1.32-2.63,3.24-2.63a4.27,4.27,0,0,1,2.94,1.15l-1,1.27a3.15,3.15,0,0,0-2-.7c-.66,0-1.11.28-1.11.8s.6.72,1.45,1l1.08.46a2.47,2.47,0,0,1,1.89,2.41c0,1.47-1.23,2.74-3.42,2.74A5.08,5.08,0,0,1,83,26Z"/><path class="cls-2" d="M92.12,27.1V25.35H94V27.1Z"/><path class="cls-3" d="M56.59,33.38v7a2.41,2.41,0,0,1-.26,1.13,1.79,1.79,0,0,1-.72.79l-6.16,3.8a1.45,1.45,0,0,1-1.57,0l-6.16-3.79-.1-.07a.2.2,0,0,1-.1.07l-6.15,3.79a1.45,1.45,0,0,1-1.57,0l-6.16-3.79a1.91,1.91,0,0,1-.72-.79,2.54,2.54,0,0,1-.26-1.13v-7A2.48,2.48,0,0,1,27,32.2a2,2,0,0,1,.78-.81l6-3.15V21.48A2.38,2.38,0,0,1,34,20.3a1.88,1.88,0,0,1,.78-.82l6.16-3.24a1.43,1.43,0,0,1,.68-.17,1.47,1.47,0,0,1,.69.17l6.16,3.24a2,2,0,0,1,.78.82,2.37,2.37,0,0,1,.29,1.18v6.76l6,3.15a2,2,0,0,1,.79.81,2.48,2.48,0,0,1,.29,1.18Zm-22,2.6,5.55-2.92-5.55-2.92L29,33.07Zm.88,7.68,5.28-3.24V35.11l-5.28,2.77v5.78Zm6.16-19,6.06-3.2-6.06-3.19-6.06,3.19Zm.88,6.4,5.28-2.79V23.75l-5.28,2.77V31ZM48.67,36l5.55-2.92-5.55-2.92-5.56,2.92Zm.88,7.68,5.28-3.24V35.11l-5.28,2.77v5.78Z"/><path class="cls-3" d="M64.51,31.34h3.2l.4,7.25c0,1.16.06,2.19.07,3.41h.08c.19-1.22.44-2.26.67-3.41l.91-3.8h2l.85,3.8c.22,1.12.47,2.16.67,3.41h.09c0-1.25,0-2.28.07-3.41l.38-7.25h3L75.19,45H71.9l-.81-4.22a22.5,22.5,0,0,1-.36-2.6h-.06c-.09.82-.2,1.73-.37,2.6L69.53,45H66.31Z"/><path class="cls-3" d="M78.23,42.08c0-2.32,1.92-3.5,6.82-3.8-.11-.93-.81-1.49-2.2-1.49a7.14,7.14,0,0,0-3.16,1l-1.1-2a10,10,0,0,1,4.85-1.4c2.92,0,4.68,1.52,4.68,4.69V45H85.61l-.22-1.17h-.08a6.32,6.32,0,0,1-3.67,1.42A3.14,3.14,0,0,1,78.23,42.08Zm6.82-.24v-1.7c-3,.15-3.87.81-3.87,1.7,0,.66.56,1,1.43,1A4,4,0,0,0,85.05,41.84Z"/><path class="cls-3" d="M91.89,34.59h2.53l.24,2.27h.07a4.81,4.81,0,0,1,4.2-2.52,4.2,4.2,0,0,1,2,.42l-.62,2.58a5.36,5.36,0,0,0-1.83-.3A3.84,3.84,0,0,0,95,39.57V45H91.89Z"/><path class="cls-3" d="M103.16,39.77a5.29,5.29,0,0,1,5.39-5.43c3.2,0,4.88,2.16,4.88,5a8.9,8.9,0,0,1-.13,1.37h-7.86V38.63h5.78l-.48.59c0-1.67-.72-2.54-2.09-2.54-1.52,0-2.51,1-2.51,3.09s1.17,3.09,3.18,3.09a5.64,5.64,0,0,0,2.67-.72L113,44a8,8,0,0,1-4.11,1.21C105.67,45.21,103.16,43.21,103.16,39.77Z"/><path class="cls-3" d="M116.05,30.32h3.07v3.57l-.18,2H119a4.68,4.68,0,0,1,3.44-1.55c2.32,0,3.35,1.6,3.35,4.22V45h-3.07V39c0-1.38-.4-2-1.52-2a2.89,2.89,0,0,0-2.1,1.08V45h-3.07Z"/><path class="cls-3" d="M128.06,39.78a5.29,5.29,0,1,1,10.57,0,5.29,5.29,0,1,1-10.57,0Zm7.42,0c0-1.8-.73-3-2.14-3s-2.14,1.16-2.14,3,.72,2.95,2.14,2.95S135.48,41.57,135.48,39.78Z"/><path class="cls-3" d="M140.9,41v-6.4H144v6c0,1.37.37,2,1.51,2a2.35,2.35,0,0,0,2-1.18V34.59h3.08V45h-2.52l-.22-1.49h-.08a4.47,4.47,0,0,1-3.5,1.74C141.9,45.21,140.9,43.61,140.9,41Z"/><path class="cls-3" d="M153.24,43.62l1.31-1.92a7.9,7.9,0,0,0,4.18,1.23c1.14,0,1.64-.38,1.64-.89s-.5-.79-2.53-1.22c-2.82-.6-3.94-1.63-3.94-3.23,0-1.93,1.8-3.25,4.76-3.25a8.42,8.42,0,0,1,4.49,1.42l-1.38,1.84a6.72,6.72,0,0,0-3.39-1c-1,0-1.44.35-1.44.83s.64.71,2.4,1.11c3.19.71,4.08,1.62,4.08,3.31,0,1.88-1.79,3.35-5.11,3.35A9.66,9.66,0,0,1,153.24,43.62Z"/><path class="cls-3" d="M165.81,39.77a5.29,5.29,0,0,1,5.4-5.43c3.19,0,4.87,2.16,4.87,5a9.18,9.18,0,0,1-.12,1.37h-7.87V38.63h5.79l-.49.59c0-1.67-.72-2.54-2.08-2.54-1.52,0-2.52,1-2.52,3.09S170,42.86,172,42.86a5.64,5.64,0,0,0,2.67-.72l1,1.86a8,8,0,0,1-4.11,1.21C168.33,45.21,165.81,43.21,165.81,39.77Z"/><path class="cls-3" d="M178.3,43.62l1.31-1.92a7.9,7.9,0,0,0,4.18,1.23c1.14,0,1.64-.38,1.64-.89s-.5-.79-2.53-1.22c-2.82-.6-3.94-1.63-3.94-3.23,0-1.93,1.8-3.25,4.76-3.25a8.42,8.42,0,0,1,4.49,1.42l-1.38,1.84a6.72,6.72,0,0,0-3.39-1c-1,0-1.44.35-1.44.83s.64.71,2.4,1.11c3.2.71,4.09,1.62,4.09,3.31,0,1.88-1.79,3.35-5.12,3.35A9.66,9.66,0,0,1,178.3,43.62Z"/></svg>