<svg id="图层_1" data-name="图层 1" xmlns="http://www.w3.org/2000/svg" viewBox="0 0 290 65"><defs><style>.cls-1{fill:#5091c5;}.cls-2{fill:#fff;}.cls-3{fill:#3e3e40;}</style></defs><rect class="cls-1" x="69.12" y="7.61" width="54.8" height="21.4"/><path class="cls-2" d="M72.31,10.65h3.74l1.87,7.26c.47,1.7.78,3.28,1.25,5h.1c.47-1.72.81-3.3,1.25-5l1.84-7.26H86l-4.7,15.59H77Z"/><path class="cls-2" d="M88.09,23.28h3.64V13.61H88.09v-3H98.9v3H95.26v9.67H98.9v3H88.09Z"/><path class="cls-2" d="M101.88,24.28l2-2.43a6.64,6.64,0,0,0,4.14,1.63c1.5,0,2.19-.58,2.19-1.34,0-1.13-.93-1.4-2.4-2l-2-.86A4.55,4.55,0,0,1,102.5,15c0-2.58,2.33-4.65,5.72-4.65a7.52,7.52,0,0,1,5.17,2l-1.77,2.23a5.6,5.6,0,0,0-3.6-1.22c-1.16,0-2,.48-2,1.39s1.05,1.28,2.54,1.84l1.91.81c2,.77,3.33,2,3.33,4.24,0,2.59-2.17,4.84-6,4.84A9,9,0,0,1,101.88,24.28Z"/><path class="cls-2" d="M118,26.24V23.15h3.23v3.09Z"/><path class="cls-3" d="M55.32,37.32V49.71a4.34,4.34,0,0,1-.46,2,3.33,3.33,0,0,1-1.27,1.4L42.73,59.78a2.34,2.34,0,0,1-1.38.41A2.41,2.41,0,0,1,40,59.78L29.11,53.11,28.93,53a.41.41,0,0,1-.17.12L17.91,59.78a2.53,2.53,0,0,1-2.76,0L4.29,53.11A3.4,3.4,0,0,1,3,51.71a4.44,4.44,0,0,1-.46-2V37.32a4.26,4.26,0,0,1,.52-2.09A3.5,3.5,0,0,1,4.45,33.8L15,28.26V16.34a4.37,4.37,0,0,1,.52-2.09,3.41,3.41,0,0,1,1.38-1.43L27.72,7.1a2.69,2.69,0,0,1,2.43,0L41,12.82a3.53,3.53,0,0,1,1.38,1.43,4.37,4.37,0,0,1,.52,2.09V28.26L53.42,33.8a3.46,3.46,0,0,1,1.38,1.43,4.26,4.26,0,0,1,.52,2.09ZM16.54,41.91l9.79-5.16-9.79-5.14-9.8,5.15Zm1.55,13.53,9.31-5.72V40.36l-9.31,4.9V55.44ZM28.94,21.89l10.69-5.63L28.94,10.62,18.26,16.26ZM30.5,33.17l9.31-4.91V20.34L30.5,25.23v7.94Zm10.86,8.74,9.79-5.16-9.79-5.14-9.8,5.14Zm1.55,13.53,9.31-5.72V40.36l-9.31,4.9V55.44Z"/><path class="cls-3" d="M69.27,33.72h5.64l.71,12.78c.06,2,.1,3.86.13,6h.14c.33-2.16.78-4,1.18-6l1.61-6.69h3.48l1.51,6.69c.38,2,.81,3.81,1.18,6H85c.05-2.21.07-4,.13-6l.68-12.78h5.28l-3,24H82.31l-1.43-7.43a38.3,38.3,0,0,1-.64-4.59h-.11c-.15,1.45-.35,3.06-.64,4.59l-1.37,7.43H72.45Z"/><path class="cls-3" d="M93.46,52.66c0-4.1,3.38-6.18,12-6.7-.19-1.64-1.43-2.64-3.88-2.64A12.72,12.72,0,0,0,96,45L94.1,41.48A17.41,17.41,0,0,1,102.65,39c5.14,0,8.25,2.67,8.25,8.27V57.72h-4.43l-.39-2.06h-.14a11.14,11.14,0,0,1-6.47,2.5C95.77,58.16,93.46,55.73,93.46,52.66Zm12-.44v-3c-5.38.27-6.82,1.43-6.82,3,0,1.18,1,1.75,2.52,1.75A7,7,0,0,0,105.48,52.22Z"/><path class="cls-3" d="M117.55,39.45H122l.42,4h.13A8.49,8.49,0,0,1,130,39a7.59,7.59,0,0,1,3.51.74l-1.1,4.55a9.57,9.57,0,0,0-3.24-.53c-2.26,0-4.59,1.17-6.17,4.45v9.5h-5.41Z"/><path class="cls-3" d="M137.41,48.58a9.32,9.32,0,0,1,9.5-9.57c5.63,0,8.6,3.8,8.6,8.77a15,15,0,0,1-.23,2.43H141.43V46.57h10.19l-.85,1c0-2.94-1.28-4.48-3.68-4.48-2.67,0-4.43,1.82-4.43,5.45,0,3.79,2.06,5.45,5.61,5.45A10,10,0,0,0,153,52.76L154.77,56a14,14,0,0,1-7.24,2.13C141.84,58.16,137.41,54.65,137.41,48.58Z"/><path class="cls-3" d="M160.13,31.93h5.42v6.29l-.32,3.52h.14a8.25,8.25,0,0,1,6-2.73c4.1,0,5.92,2.82,5.92,7.43V57.72h-5.42V47.14c0-2.43-.7-3.51-2.68-3.51-1.45,0-2.43.67-3.69,1.9V57.72h-5.42Z"/><path class="cls-3" d="M181.29,48.6a9.32,9.32,0,1,1,18.63,0,9.32,9.32,0,1,1-18.63,0Zm13.08,0c0-3.17-1.27-5.21-3.76-5.21s-3.77,2-3.77,5.21,1.27,5.19,3.77,5.19S194.37,51.75,194.37,48.6Z"/><path class="cls-3" d="M203.92,50.73V39.45h5.42V50c0,2.42.65,3.51,2.67,3.51,1.34,0,2.29-.48,3.54-2.09v-12H221V57.72h-4.43l-.39-2.62H216a7.84,7.84,0,0,1-6.16,3.06C205.69,58.16,203.92,55.34,203.92,50.73Z"/><path class="cls-3" d="M225.69,55.36,228,52a13.89,13.89,0,0,0,7.37,2.17c2,0,2.9-.67,2.9-1.57s-.89-1.39-4.47-2.14c-5-1.07-6.95-2.89-6.95-5.71,0-3.4,3.18-5.72,8.4-5.72a14.77,14.77,0,0,1,7.9,2.5l-2.43,3.25a11.76,11.76,0,0,0-6-1.74c-1.69,0-2.53.6-2.53,1.46,0,1,1.12,1.25,4.22,1.94,5.63,1.27,7.2,2.87,7.2,5.85,0,3.3-3.15,5.89-9,5.89A16.93,16.93,0,0,1,225.69,55.36Z"/><path class="cls-3" d="M247.85,48.58a9.32,9.32,0,0,1,9.5-9.57c5.64,0,8.6,3.8,8.6,8.77a15,15,0,0,1-.23,2.43H251.87V46.57h10.19l-.85,1c0-2.94-1.28-4.48-3.68-4.48-2.67,0-4.43,1.82-4.43,5.45,0,3.79,2.06,5.45,5.61,5.45a10,10,0,0,0,4.71-1.27l1.8,3.27A14.07,14.07,0,0,1,258,58.16C252.28,58.16,247.85,54.65,247.85,48.58Z"/><path class="cls-3" d="M269.86,55.36l2.3-3.38a13.9,13.9,0,0,0,7.38,2.17c2,0,2.89-.67,2.89-1.57s-.88-1.39-4.47-2.14c-5-1.07-6.94-2.89-6.94-5.71,0-3.4,3.18-5.72,8.39-5.72a14.78,14.78,0,0,1,7.91,2.5l-2.43,3.25a11.78,11.78,0,0,0-6-1.74c-1.69,0-2.53.6-2.53,1.46,0,1,1.12,1.25,4.22,1.94,5.63,1.27,7.2,2.87,7.2,5.85,0,3.3-3.15,5.89-9,5.89A17,17,0,0,1,269.86,55.36Z"/></svg>