<svg id="图层_1" data-name="图层 1" xmlns="http://www.w3.org/2000/svg" viewBox="0 0 151.46 39.96"><defs><style>.cls-1{fill:#5091c5;}.cls-2{fill:#fff;}.cls-3{fill:#3e3e40;}</style></defs><rect class="cls-1" x="37.6" y="5.68" width="31.09" height="12.14"/><path class="cls-2" d="M39.41,7.4h2.12l1.06,4.12c.27,1,.45,1.86.71,2.84h.06c.27-1,.46-1.87.71-2.84l1-4.12h2l-2.67,8.85H42.08Z"/><path class="cls-2" d="M48.36,14.57h2.07V9.08H48.36V7.4H54.5V9.08H52.43v5.49H54.5v1.68H48.36Z"/><path class="cls-2" d="M56.18,15.13l1.15-1.37a3.79,3.79,0,0,0,2.36.92c.85,0,1.24-.33,1.24-.76,0-.64-.53-.79-1.36-1.14l-1.16-.49a2.59,2.59,0,0,1-1.87-2.42c0-1.46,1.32-2.63,3.24-2.63a4.34,4.34,0,0,1,2.94,1.15l-1,1.27a3.14,3.14,0,0,0-2-.69c-.66,0-1.11.27-1.11.79s.6.72,1.45,1l1.08.46A2.48,2.48,0,0,1,63,13.67c0,1.47-1.24,2.74-3.43,2.74A5.12,5.12,0,0,1,56.18,15.13Z"/><path class="cls-2" d="M65.3,16.25V14.5h1.83v1.75Z"/><path class="cls-3" d="M39.07,20.49h3.76c4,0,6.55,2.07,6.55,6.75s-2.6,6.87-6.38,6.87H39.07Zm3.59,11.14c2.12,0,3.56-1.13,3.56-4.39S44.78,23,42.66,23h-.51v8.65Z"/><path class="cls-3" d="M51.11,28.93a5.29,5.29,0,1,1,10.57,0,5.29,5.29,0,1,1-10.57,0Zm7.42,0c0-1.8-.72-3-2.13-3s-2.14,1.16-2.14,3,.72,2.95,2.14,2.95S58.53,30.72,58.53,28.93Z"/><path class="cls-3" d="M64.06,28.93c0-3.45,2.8-5.44,6-5.44a5.61,5.61,0,0,1,3.88,1.41l-1.41,1.91a3.78,3.78,0,0,0-2.3-.84,2.82,2.82,0,0,0-3,3,2.78,2.78,0,0,0,2.91,2.95,4.77,4.77,0,0,0,2.72-1l1.24,1.94a6.69,6.69,0,0,1-4.25,1.53C66.56,34.36,64.06,32.37,64.06,28.93Z"/><path class="cls-3" d="M76.48,30.14v-6.4h3.08v6c0,1.37.36,2,1.51,2a2.35,2.35,0,0,0,2-1.18V23.74h3.07V34.11H83.64l-.22-1.49h-.08a4.49,4.49,0,0,1-3.5,1.74C77.48,34.36,76.48,32.76,76.48,30.14Z"/><path class="cls-3" d="M88.45,23.74h2.31L91,25h.08a2.35,2.35,0,0,1,2.24-1.53c.9,0,1.55.59,1.8,1.7a2.43,2.43,0,0,1,2.29-1.7c1.48,0,2.32,1.28,2.32,3.35v7.27H96.79V27.05c0-.64-.15-.94-.56-.94s-.66.32-1,1v7h-2.4V27.05c0-.64-.19-.94-.59-.94s-.65.32-.92,1v7H88.45Z"/><path class="cls-3" d="M101.4,28.92a5.29,5.29,0,0,1,5.39-5.43c3.2,0,4.88,2.16,4.88,5a8.9,8.9,0,0,1-.13,1.37h-7.86V27.78h5.78l-.48.59c0-1.66-.72-2.54-2.09-2.54s-2.51,1-2.51,3.09S105.55,32,107.57,32a5.64,5.64,0,0,0,2.67-.72l1,1.86a7.9,7.9,0,0,1-4.1,1.21C103.92,34.36,101.4,32.36,101.4,28.92Z"/><path class="cls-3" d="M114.29,23.74h2.5l.22,1.39h.09a5,5,0,0,1,3.58-1.64c2.34,0,3.37,1.6,3.37,4.22v6.4H121v-6c0-1.38-.4-2-1.52-2a2.89,2.89,0,0,0-2.1,1.08v6.92h-3.07Z"/><path class="cls-3" d="M129,29.81V26.15h-2.61V23.86l2.75-.12.4-3.16H132v3.16h4.37v2.41H132v3.62c0,1.58.66,2.17,2.18,2.17a5.88,5.88,0,0,0,2-.37l.56,2.23a11.5,11.5,0,0,1-3.39.56C130.12,34.36,129,32.53,129,29.81Z"/><path class="cls-3" d="M139,32.77l1.31-1.92a7.9,7.9,0,0,0,4.18,1.23c1.14,0,1.64-.38,1.64-.89s-.5-.79-2.53-1.21c-2.82-.61-3.94-1.64-3.94-3.24,0-1.93,1.8-3.25,4.76-3.25a8.42,8.42,0,0,1,4.49,1.42l-1.38,1.84a6.72,6.72,0,0,0-3.39-1c-1,0-1.44.35-1.44.83s.64.71,2.4,1.11c3.19.71,4.08,1.63,4.08,3.31,0,1.88-1.79,3.35-5.11,3.35A9.66,9.66,0,0,1,139,32.77Z"/><path class="cls-3" d="M29.42,9.54l-12.25-5a2.61,2.61,0,0,0-1-.2,2.65,2.65,0,0,0-1,.2L2.93,9.57A3.11,3.11,0,0,0,1.1,12.48v14a3.17,3.17,0,0,0,1.49,2.75l12.3,7.27a2.71,2.71,0,0,0,1.34.37,2.61,2.61,0,0,0,1.26-.33L29.7,29.86a3.15,3.15,0,0,0,1.56-2.78V12.46A3.11,3.11,0,0,0,29.42,9.54ZM15.85,6.45a.94.94,0,0,1,.66,0l10.77,4.42a.4.4,0,0,1,0,.73l-10.14,4a2.62,2.62,0,0,1-1.91,0l-10.11-4a.4.4,0,0,1,0-.73ZM29.38,27.08a1.06,1.06,0,0,1-.52.93L18.14,33.9a.71.71,0,0,1-1-.7V18.9a1.56,1.56,0,0,1,.94-1.47l10.38-4.07a.71.71,0,0,1,.94.73v13Z"/></svg>